# xmcd
#
# Track frame offsets: 
#        150
#        18177
#        38765
#        55591
#        77060
#        85642
#        104671
#        126315
#        147680
#        168069
#
# Disc length: 2478 seconds
#
# Revision: 0
# Processed by: cddbd v1.5.2PL0 Copyright (c) Steve Scherf et al.
# Submitted via: ExactAudioCopy v1.0b3
#
DISCID=7909ac0a
DTITLE=Chuck D - Stay Positive or Stay Home Volume 1
DYEAR=2017
DGENRE=Instrumental
TTITLE0=Mistachuck (Instrumental)
TTITLE1=No (Instrumental)
TTITLE2=Niggativity (Instrumental)
TTITLE3=Free Big Willie (Part 1) (Instrumental)
TTITLE4=Horizontal Heroin (Instrumental)
TTITLE5=Underdog (Instrumental)
TTITLE6=But Can You Kill The Nigger In You? (Instrumental)
TTITLE7=Endonesia (Instrumental)
TTITLE8=The Pride (Instrumental)
TTITLE9=Paid (Instrumental)
EXTD=
EXTT0=
EXTT1=
EXTT2=
EXTT3=
EXTT4=
EXTT5=
EXTT6=
EXTT7=
EXTT8=
EXTT9=
PLAYORDER=
